<?xml version="1.0" encoding="UTF-8"?>
<svg xmlns="http://www.w3.org/2000/svg" xmlns:xlink="http://www.w3.org/1999/xlink" width="48px" height="48px" viewBox="0 0 48 48" version="1.1">
<g id="surface1">
<path style=" stroke:none;fill-rule:evenodd;fill:rgb(55.29412%,77.64706%,25.490198%);fill-opacity:1;" d="M 29.367188 17.027344 C 29.269531 17.054688 29.152344 17.28125 29.152344 17.445312 C 29.152344 17.507812 29.1875 17.648438 29.226562 17.761719 C 29.285156 17.921875 29.898438 19.132812 30.117188 19.519531 C 30.148438 19.570312 30.226562 19.71875 30.289062 19.84375 C 30.390625 20.035156 30.429688 20.074219 30.570312 20.101562 C 30.789062 20.144531 30.921875 20.339844 31.03125 20.777344 C 31.109375 21.085938 31.125 21.269531 31.140625 22.140625 C 31.160156 22.972656 31.148438 23.214844 31.09375 23.523438 C 31.058594 23.726562 31.003906 23.921875 30.972656 23.953125 C 30.921875 24.003906 30.914062 23.847656 30.914062 22.746094 C 30.914062 21.035156 30.847656 20.53125 30.609375 20.417969 C 30.332031 20.285156 30.160156 20.84375 29.953125 22.53125 C 29.847656 23.421875 29.679688 24.304688 29.566406 24.585938 C 29.503906 24.734375 29.363281 24.988281 29.25 25.152344 C 28.800781 25.800781 28.472656 26.484375 28.195312 27.363281 C 27.839844 28.488281 27.847656 29.523438 28.226562 30.914062 C 28.324219 31.273438 28.394531 31.574219 28.386719 31.585938 C 28.378906 31.59375 28.292969 31.550781 28.195312 31.492188 C 28.035156 31.390625 28.011719 31.386719 27.949219 31.453125 C 27.824219 31.589844 27.101562 32.074219 26.722656 32.28125 C 25.238281 33.085938 23.882812 33.320312 22.570312 33.011719 C 21.808594 32.832031 21.730469 32.808594 21.257812 32.613281 C 20.808594 32.425781 20.042969 31.980469 19.683594 31.703125 C 18.511719 30.785156 17.535156 29.4375 16.925781 27.894531 C 16.636719 27.152344 16.449219 26.4375 16.292969 25.453125 C 16.21875 24.984375 16.207031 24.746094 16.207031 23.78125 C 16.207031 22.835938 16.222656 22.558594 16.292969 22.066406 C 16.390625 21.398438 16.609375 20.425781 16.773438 19.917969 C 16.914062 19.488281 16.863281 19.546875 16.660156 20.058594 C 15.816406 22.160156 15.546875 24.609375 15.914062 26.867188 C 16.394531 29.820312 17.984375 32.402344 20.179688 33.792969 C 21.601562 34.691406 23.152344 35.082031 24.695312 34.929688 C 25.394531 34.863281 25.75 34.785156 26.351562 34.574219 C 26.789062 34.417969 27.453125 34.105469 27.6875 33.941406 C 27.757812 33.890625 27.9375 33.765625 28.082031 33.667969 C 28.648438 33.28125 29.222656 32.726562 29.664062 32.140625 C 31.066406 30.289062 31.84375 28.464844 32.15625 26.277344 C 32.242188 25.660156 32.253906 23.902344 32.175781 23.242188 C 31.914062 21.042969 31.140625 18.992188 30.015625 17.515625 C 29.777344 17.203125 29.519531 16.964844 29.457031 17.003906 C 29.453125 17.007812 29.410156 17.019531 29.367188 17.027344 M 28.816406 18.195312 C 28.707031 18.332031 28.695312 18.53125 28.777344 18.777344 C 28.851562 19.003906 29.214844 19.648438 29.710938 20.441406 C 29.761719 20.519531 29.828125 20.628906 29.867188 20.6875 C 29.929688 20.789062 29.933594 20.789062 30.035156 20.507812 C 30.097656 20.335938 30.128906 20.179688 30.117188 20.117188 C 30.105469 20.058594 30 19.851562 29.886719 19.660156 C 29.773438 19.46875 29.53125 19.046875 29.347656 18.71875 C 29.164062 18.394531 28.992188 18.113281 28.964844 18.101562 C 28.9375 18.085938 28.871094 18.128906 28.816406 18.195312 M 27.234375 19.082031 C 26.1875 19.316406 25.246094 20.109375 24.179688 21.644531 C 24.132812 21.707031 24.113281 21.785156 24.128906 21.820312 C 24.175781 21.921875 24.886719 22.929688 24.902344 22.914062 C 24.90625 22.90625 24.980469 22.742188 25.058594 22.554688 C 25.417969 21.71875 25.957031 20.746094 26.308594 20.304688 C 26.644531 19.882812 27.109375 19.449219 27.527344 19.164062 C 27.734375 19.023438 27.75 19.007812 27.644531 19.011719 C 27.578125 19.011719 27.394531 19.042969 27.234375 19.082031 M 28.40625 19.144531 C 28.324219 19.226562 28.308594 19.28125 28.3125 19.527344 C 28.3125 19.703125 28.339844 19.878906 28.382812 19.988281 C 28.472656 20.214844 29.652344 22.1875 29.699219 22.1875 C 29.734375 22.1875 29.746094 22.136719 29.820312 21.566406 L 29.871094 21.214844 L 29.714844 20.957031 C 29.117188 19.929688 28.589844 19.074219 28.546875 19.0625 C 28.519531 19.054688 28.457031 19.09375 28.40625 19.144531 M 28.414062 20.820312 C 28.367188 20.882812 28.316406 20.992188 28.300781 21.058594 C 28.261719 21.253906 28.433594 21.777344 28.691406 22.257812 C 28.984375 22.800781 29.449219 23.589844 29.5 23.628906 C 29.535156 23.65625 29.585938 23.433594 29.660156 22.90625 L 29.699219 22.621094 L 29.4375 22.203125 C 29.289062 21.972656 29.097656 21.660156 29.007812 21.507812 C 28.746094 21.078125 28.667969 20.953125 28.582031 20.824219 L 28.5 20.703125 L 28.414062 20.820312 M 22.171875 24.894531 C 21.9375 25.332031 21.722656 25.867188 21.574219 26.363281 C 21.34375 27.132812 21.300781 27.449219 21.300781 28.359375 C 21.300781 29.089844 21.308594 29.214844 21.402344 29.644531 C 21.71875 31.070312 22.394531 31.910156 23.542969 32.308594 L 23.882812 32.425781 L 23.949219 32.324219 C 24.042969 32.179688 24.238281 31.410156 24.3125 30.878906 C 24.425781 30.0625 24.367188 28.996094 24.160156 28.039062 C 23.953125 27.101562 23.953125 27.101562 23.972656 28.246094 C 23.992188 29.335938 23.957031 29.875 23.820312 30.71875 C 23.738281 31.210938 23.585938 31.835938 23.539062 31.851562 C 23.492188 31.871094 23.109375 31.375 22.964844 31.105469 C 22.828125 30.851562 22.726562 30.566406 22.601562 30.097656 C 22.523438 29.804688 22.535156 28.4375 22.617188 27.960938 C 22.710938 27.433594 22.949219 26.523438 23.082031 26.191406 C 23.144531 26.039062 23.195312 25.886719 23.195312 25.855469 C 23.195312 25.824219 23.058594 25.609375 22.890625 25.378906 C 22.722656 25.144531 22.535156 24.882812 22.472656 24.796875 C 22.410156 24.707031 22.347656 24.636719 22.332031 24.636719 C 22.320312 24.636719 22.246094 24.753906 22.171875 24.894531 "/>
<path style=" stroke:none;fill-rule:evenodd;fill:rgb(9.019608%,45.09804%,71.372551%);fill-opacity:1;" d="M 21.558594 13.128906 C 21.511719 13.183594 21.472656 13.273438 21.472656 13.324219 C 21.472656 13.421875 21.601562 13.617188 21.667969 13.617188 C 21.738281 13.617188 21.902344 13.5 21.90625 13.449219 C 21.910156 13.417969 21.914062 13.355469 21.921875 13.308594 C 21.9375 13.222656 21.773438 13.027344 21.691406 13.027344 C 21.664062 13.027344 21.605469 13.074219 21.558594 13.128906 M 22.207031 13.914062 C 20.898438 15.597656 20.347656 18.082031 20.824219 20.15625 C 21.171875 21.65625 21.898438 23.011719 23.570312 25.273438 C 24.324219 26.296875 24.648438 26.824219 24.925781 27.476562 C 25.257812 28.253906 25.390625 28.886719 25.390625 29.675781 C 25.390625 30.515625 25.238281 31.222656 24.898438 31.945312 C 24.824219 32.101562 24.78125 32.230469 24.796875 32.230469 C 24.847656 32.230469 25.335938 31.855469 25.46875 31.710938 C 26.5625 30.527344 26.871094 28.949219 26.371094 27.085938 C 26.238281 26.59375 25.875 25.703125 25.585938 25.164062 C 25.222656 24.488281 24.933594 24.042969 24.023438 22.75 C 23.582031 22.121094 22.953125 21.140625 22.738281 20.742188 C 22.171875 19.695312 21.867188 18.359375 21.863281 16.933594 C 21.863281 15.8125 22.074219 14.691406 22.453125 13.820312 C 22.515625 13.671875 22.558594 13.539062 22.546875 13.523438 C 22.535156 13.511719 22.382812 13.683594 22.207031 13.914062 M 23.570312 14.089844 C 23.054688 14.117188 23.0625 14.113281 22.929688 14.511719 C 22.792969 14.917969 22.648438 15.496094 22.648438 15.621094 C 22.648438 15.703125 22.667969 15.703125 23.011719 15.613281 C 23.492188 15.492188 24.601562 15.441406 25.089844 15.523438 C 26.300781 15.726562 27.378906 16.21875 28.246094 16.96875 C 28.417969 17.121094 28.566406 17.242188 28.574219 17.242188 C 28.585938 17.242188 28.613281 17.152344 28.640625 17.042969 C 28.664062 16.933594 28.761719 16.746094 28.855469 16.625 L 29.023438 16.40625 L 28.863281 16.246094 C 27.574219 14.960938 26.148438 14.25 24.566406 14.105469 C 24.296875 14.082031 24.027344 14.0625 23.960938 14.066406 C 23.894531 14.074219 23.71875 14.082031 23.570312 14.089844 M 20.496094 14.675781 C 20.363281 14.882812 20.414062 15.128906 20.605469 15.230469 C 20.730469 15.296875 20.855469 15.246094 20.953125 15.089844 C 21.078125 14.882812 20.929688 14.546875 20.707031 14.546875 C 20.613281 14.546875 20.554688 14.582031 20.496094 14.675781 M 19.808594 16.277344 C 19.597656 16.546875 19.726562 16.945312 20.027344 16.945312 C 20.222656 16.945312 20.351562 16.753906 20.320312 16.507812 C 20.292969 16.296875 20.230469 16.214844 20.050781 16.179688 C 19.933594 16.15625 19.894531 16.171875 19.808594 16.277344 M 18.683594 16.863281 C 17.429688 18.421875 16.660156 20.492188 16.496094 22.75 C 16.257812 25.960938 17.558594 29.464844 19.613281 31.164062 C 19.910156 31.410156 20.402344 31.757812 20.335938 31.675781 C 20.324219 31.664062 20.175781 31.515625 20.007812 31.347656 C 18.5 29.855469 17.582031 27.890625 17.300781 25.542969 C 17.214844 24.824219 17.222656 23.605469 17.320312 22.902344 C 17.519531 21.421875 17.972656 20.105469 18.675781 18.925781 C 18.875 18.59375 18.886719 18.558594 18.886719 18.277344 C 18.886719 17.941406 18.941406 17.390625 19.027344 16.832031 C 19.0625 16.621094 19.082031 16.4375 19.070312 16.425781 C 19.058594 16.414062 18.886719 16.609375 18.683594 16.863281 M 23.707031 16.632812 C 23.242188 16.882812 22.960938 17.53125 22.960938 18.347656 C 22.960938 18.886719 23.0625 19.234375 23.316406 19.546875 C 23.460938 19.730469 23.535156 19.785156 23.675781 19.8125 C 24.019531 19.878906 24.335938 19.671875 24.566406 19.234375 C 24.738281 18.910156 24.804688 18.648438 24.832031 18.207031 C 24.894531 17.117188 24.316406 16.304688 23.707031 16.632812 M 19.496094 18.371094 C 19.277344 18.699219 19.4375 19.113281 19.78125 19.113281 C 19.980469 19.113281 20.15625 18.859375 20.125 18.613281 C 20.078125 18.226562 19.695312 18.078125 19.496094 18.371094 M 19.699219 20.761719 C 19.585938 20.894531 19.570312 20.933594 19.570312 21.183594 C 19.570312 21.433594 19.585938 21.472656 19.699219 21.605469 C 19.804688 21.71875 19.863281 21.746094 20.015625 21.746094 C 20.226562 21.746094 20.347656 21.660156 20.433594 21.453125 C 20.511719 21.261719 20.507812 21.066406 20.421875 20.902344 C 20.308594 20.6875 20.214844 20.625 20.015625 20.621094 C 19.863281 20.621094 19.804688 20.648438 19.699219 20.761719 M 20.757812 23.058594 C 20.636719 23.148438 20.492188 23.476562 20.492188 23.648438 C 20.492188 23.964844 20.710938 24.289062 20.953125 24.328125 C 21.285156 24.382812 21.5625 24.128906 21.609375 23.730469 C 21.675781 23.191406 21.132812 22.765625 20.757812 23.058594 "/>
<path style=" stroke:none;fill-rule:evenodd;fill:rgb(98.431373%,98.431373%,98.431373%);fill-opacity:1;" d="M 0 24 L 0 48 L 24.011719 47.988281 L 48.019531 47.976562 L 48.03125 23.988281 L 48.039062 0 L 0 0 L 0 24 M 0.0195312 24.023438 C 0.0195312 37.222656 0.0234375 42.617188 0.03125 36.007812 C 0.0351562 29.398438 0.0351562 18.597656 0.03125 12.007812 C 0.0234375 5.417969 0.0195312 10.824219 0.0195312 24.023438 M 21.539062 13.117188 C 21.390625 13.320312 21.515625 13.640625 21.734375 13.609375 C 21.804688 13.597656 21.863281 13.542969 21.902344 13.457031 C 21.957031 13.335938 21.957031 13.308594 21.902344 13.1875 C 21.828125 13.019531 21.636719 12.980469 21.539062 13.117188 M 22.351562 13.707031 C 21.503906 14.6875 20.867188 16.210938 20.691406 17.667969 C 20.625 18.226562 20.640625 19.207031 20.722656 19.714844 C 20.804688 20.207031 21.023438 20.960938 21.226562 21.476562 C 21.625 22.46875 22.5625 23.996094 23.648438 25.417969 C 24.820312 26.953125 25.320312 28.140625 25.378906 29.511719 C 25.414062 30.34375 25.269531 31.066406 24.898438 31.902344 C 24.820312 32.085938 24.761719 32.242188 24.773438 32.253906 C 24.78125 32.265625 24.921875 32.175781 25.085938 32.058594 C 26.136719 31.289062 26.738281 29.828125 26.605469 28.355469 C 26.527344 27.453125 26.304688 26.644531 25.882812 25.738281 C 25.550781 25.011719 25.183594 24.402344 24.441406 23.324219 C 23.023438 21.265625 22.722656 20.769531 22.429688 20.007812 C 22.214844 19.449219 22.027344 18.710938 21.9375 18.074219 C 21.859375 17.507812 21.871094 16.183594 21.960938 15.648438 C 22.054688 15.074219 22.261719 14.324219 22.460938 13.847656 C 22.546875 13.636719 22.613281 13.457031 22.605469 13.445312 C 22.597656 13.4375 22.480469 13.554688 22.351562 13.707031 M 23.273438 14.101562 L 23.058594 14.128906 L 22.953125 14.398438 C 22.84375 14.679688 22.675781 15.28125 22.628906 15.570312 L 22.601562 15.734375 L 22.75 15.699219 C 23.347656 15.554688 23.550781 15.523438 24.019531 15.496094 C 25.511719 15.40625 27.132812 16 28.355469 17.082031 L 28.601562 17.292969 L 28.640625 17.101562 C 28.683594 16.902344 28.792969 16.699219 28.953125 16.527344 C 29.0625 16.410156 29.054688 16.398438 28.691406 16.046875 C 27.601562 15 26.191406 14.292969 24.835938 14.109375 C 24.441406 14.054688 23.652344 14.050781 23.273438 14.101562 M 20.609375 14.535156 C 20.421875 14.617188 20.347656 14.945312 20.46875 15.148438 C 20.625 15.402344 21.003906 15.238281 21.003906 14.917969 C 21.003906 14.65625 20.796875 14.453125 20.609375 14.535156 M 19.816406 16.230469 C 19.535156 16.496094 19.757812 17.066406 20.101562 16.972656 C 20.335938 16.90625 20.425781 16.480469 20.246094 16.269531 C 20.140625 16.148438 19.925781 16.128906 19.816406 16.230469 M 18.667969 16.859375 C 17.460938 18.410156 16.761719 20.160156 16.519531 22.261719 C 16.4375 22.96875 16.460938 24.390625 16.566406 25.125 C 16.964844 27.863281 18.3125 30.339844 20.042969 31.519531 C 20.230469 31.648438 20.386719 31.742188 20.394531 31.730469 C 20.40625 31.71875 20.285156 31.589844 20.128906 31.441406 C 18.660156 30.042969 17.753906 28.246094 17.371094 25.964844 C 17.277344 25.410156 17.265625 25.242188 17.265625 24.320312 C 17.261719 23.195312 17.304688 22.804688 17.511719 21.910156 C 17.769531 20.804688 18.210938 19.683594 18.695312 18.921875 C 18.855469 18.671875 18.886719 18.589844 18.886719 18.417969 C 18.886719 18.082031 18.964844 17.292969 19.046875 16.828125 C 19.085938 16.585938 19.121094 16.382812 19.121094 16.375 C 19.121094 16.304688 19 16.433594 18.667969 16.859375 M 23.625 16.652344 C 23.433594 16.777344 23.207031 17.101562 23.097656 17.40625 C 22.785156 18.25 22.9375 19.304688 23.425781 19.695312 C 23.589844 19.828125 23.632812 19.84375 23.851562 19.824219 C 24.15625 19.804688 24.367188 19.636719 24.574219 19.246094 C 24.761719 18.902344 24.84375 18.53125 24.839844 18.046875 C 24.839844 17.417969 24.667969 16.933594 24.355469 16.683594 C 24.160156 16.523438 23.839844 16.511719 23.625 16.652344 M 29.367188 17.027344 C 29.269531 17.054688 29.152344 17.28125 29.152344 17.445312 C 29.152344 17.507812 29.1875 17.648438 29.226562 17.761719 C 29.285156 17.921875 29.898438 19.132812 30.117188 19.519531 C 30.148438 19.570312 30.226562 19.71875 30.289062 19.84375 C 30.390625 20.035156 30.429688 20.074219 30.570312 20.101562 C 30.789062 20.144531 30.921875 20.339844 31.03125 20.777344 C 31.109375 21.085938 31.125 21.269531 31.140625 22.140625 C 31.160156 22.972656 31.148438 23.214844 31.09375 23.523438 C 31.058594 23.726562 31.003906 23.921875 30.972656 23.953125 C 30.921875 24.003906 30.914062 23.847656 30.914062 22.746094 C 30.914062 21.035156 30.847656 20.53125 30.609375 20.417969 C 30.332031 20.285156 30.160156 20.84375 29.953125 22.53125 C 29.847656 23.421875 29.679688 24.304688 29.566406 24.585938 C 29.503906 24.734375 29.363281 24.988281 29.25 25.152344 C 28.800781 25.800781 28.472656 26.484375 28.195312 27.363281 C 27.839844 28.488281 27.847656 29.523438 28.226562 30.914062 C 28.324219 31.273438 28.394531 31.574219 28.386719 31.585938 C 28.378906 31.59375 28.292969 31.550781 28.195312 31.492188 C 28.035156 31.390625 28.011719 31.386719 27.949219 31.453125 C 27.824219 31.589844 27.101562 32.074219 26.722656 32.28125 C 25.238281 33.085938 23.882812 33.320312 22.570312 33.011719 C 21.808594 32.832031 21.730469 32.808594 21.257812 32.613281 C 20.808594 32.425781 20.042969 31.980469 19.683594 31.703125 C 18.511719 30.785156 17.535156 29.4375 16.925781 27.894531 C 16.636719 27.152344 16.449219 26.4375 16.292969 25.453125 C 16.21875 24.984375 16.207031 24.746094 16.207031 23.78125 C 16.207031 22.835938 16.222656 22.558594 16.292969 22.066406 C 16.390625 21.398438 16.609375 20.425781 16.773438 19.917969 C 16.914062 19.488281 16.863281 19.546875 16.660156 20.058594 C 15.816406 22.160156 15.546875 24.609375 15.914062 26.867188 C 16.394531 29.820312 17.984375 32.402344 20.179688 33.792969 C 21.601562 34.691406 23.152344 35.082031 24.695312 34.929688 C 25.394531 34.863281 25.75 34.785156 26.351562 34.574219 C 26.789062 34.417969 27.453125 34.105469 27.6875 33.941406 C 27.757812 33.890625 27.9375 33.765625 28.082031 33.667969 C 28.648438 33.28125 29.222656 32.726562 29.664062 32.140625 C 31.066406 30.289062 31.84375 28.464844 32.15625 26.277344 C 32.242188 25.660156 32.253906 23.902344 32.175781 23.242188 C 31.914062 21.042969 31.140625 18.992188 30.015625 17.515625 C 29.777344 17.203125 29.519531 16.964844 29.457031 17.003906 C 29.453125 17.007812 29.410156 17.019531 29.367188 17.027344 M 28.816406 18.195312 C 28.707031 18.332031 28.695312 18.53125 28.777344 18.777344 C 28.851562 19.003906 29.214844 19.648438 29.710938 20.441406 C 29.761719 20.519531 29.828125 20.628906 29.867188 20.6875 C 29.929688 20.789062 29.933594 20.789062 30.035156 20.507812 C 30.097656 20.335938 30.128906 20.179688 30.117188 20.117188 C 30.105469 20.058594 30 19.851562 29.886719 19.660156 C 29.773438 19.46875 29.53125 19.046875 29.347656 18.71875 C 29.164062 18.394531 28.992188 18.113281 28.964844 18.101562 C 28.9375 18.085938 28.871094 18.128906 28.816406 18.195312 M 19.605469 18.21875 C 19.480469 18.285156 19.394531 18.464844 19.394531 18.675781 C 19.394531 18.820312 19.421875 18.898438 19.515625 19.015625 C 19.621094 19.144531 19.652344 19.160156 19.800781 19.136719 C 19.996094 19.101562 20.140625 18.921875 20.140625 18.710938 C 20.140625 18.320312 19.878906 18.082031 19.605469 18.21875 M 27.234375 19.082031 C 26.1875 19.316406 25.246094 20.109375 24.179688 21.644531 C 24.132812 21.707031 24.113281 21.785156 24.128906 21.820312 C 24.175781 21.921875 24.886719 22.929688 24.902344 22.914062 C 24.90625 22.90625 24.980469 22.742188 25.058594 22.554688 C 25.417969 21.71875 25.957031 20.746094 26.308594 20.304688 C 26.644531 19.882812 27.109375 19.449219 27.527344 19.164062 C 27.734375 19.023438 27.75 19.007812 27.644531 19.011719 C 27.578125 19.011719 27.394531 19.042969 27.234375 19.082031 M 28.40625 19.144531 C 28.324219 19.226562 28.308594 19.28125 28.3125 19.527344 C 28.3125 19.703125 28.339844 19.878906 28.382812 19.988281 C 28.472656 20.214844 29.652344 22.1875 29.699219 22.1875 C 29.734375 22.1875 29.746094 22.136719 29.820312 21.566406 L 29.871094 21.214844 L 29.714844 20.957031 C 29.117188 19.929688 28.589844 19.074219 28.546875 19.0625 C 28.519531 19.054688 28.457031 19.09375 28.40625 19.144531 M 19.796875 20.652344 C 19.636719 20.753906 19.550781 20.945312 19.550781 21.207031 C 19.550781 21.664062 19.894531 21.921875 20.234375 21.722656 C 20.542969 21.539062 20.585938 20.957031 20.3125 20.699219 C 20.171875 20.574219 19.953125 20.550781 19.796875 20.652344 M 28.414062 20.820312 C 28.367188 20.882812 28.316406 20.992188 28.300781 21.058594 C 28.261719 21.253906 28.433594 21.777344 28.691406 22.257812 C 28.984375 22.800781 29.449219 23.589844 29.5 23.628906 C 29.535156 23.65625 29.585938 23.433594 29.660156 22.90625 L 29.699219 22.621094 L 29.4375 22.203125 C 29.289062 21.972656 29.097656 21.660156 29.007812 21.507812 C 28.746094 21.078125 28.667969 20.953125 28.582031 20.824219 L 28.5 20.703125 L 28.414062 20.820312 M 20.820312 22.992188 C 20.410156 23.222656 20.382812 24.023438 20.773438 24.273438 C 21.160156 24.523438 21.628906 24.183594 21.628906 23.660156 C 21.628906 23.144531 21.191406 22.78125 20.820312 22.992188 M 22.171875 24.894531 C 21.9375 25.332031 21.722656 25.867188 21.574219 26.363281 C 21.34375 27.132812 21.300781 27.449219 21.300781 28.359375 C 21.300781 29.089844 21.308594 29.214844 21.402344 29.644531 C 21.71875 31.070312 22.394531 31.910156 23.542969 32.308594 L 23.882812 32.425781 L 23.949219 32.324219 C 24.042969 32.179688 24.238281 31.410156 24.3125 30.878906 C 24.425781 30.0625 24.367188 28.996094 24.160156 28.039062 C 23.953125 27.101562 23.953125 27.101562 23.972656 28.246094 C 23.992188 29.335938 23.957031 29.875 23.820312 30.71875 C 23.738281 31.210938 23.585938 31.835938 23.539062 31.851562 C 23.492188 31.871094 23.109375 31.375 22.964844 31.105469 C 22.828125 30.851562 22.726562 30.566406 22.601562 30.097656 C 22.523438 29.804688 22.535156 28.4375 22.617188 27.960938 C 22.710938 27.433594 22.949219 26.523438 23.082031 26.191406 C 23.144531 26.039062 23.195312 25.886719 23.195312 25.855469 C 23.195312 25.824219 23.058594 25.609375 22.890625 25.378906 C 22.722656 25.144531 22.535156 24.882812 22.472656 24.796875 C 22.410156 24.707031 22.347656 24.636719 22.332031 24.636719 C 22.320312 24.636719 22.246094 24.753906 22.171875 24.894531 "/>
</g>
</svg>
